#tb 0: 3521/100000
0,          0,          0,        1,    64800, 0x63132a60
0,          1,          1,        1,    64800, 0xb3c729a3
0,          2,          2,        1,    64800, 0xa27b1e0e
0,          3,          3,        1,    64800, 0xb9131d00
0,          4,          4,        1,    64800, 0xaf9a1bae
0,          5,          5,        1,    64800, 0x11e319c5
0,          6,          6,        1,    64800, 0xee6e1e6b
0,          7,          7,        1,    64800, 0x418417e9
0,          8,          8,        1,    64800, 0x339d29f4
0,          9,          9,        1,    64800, 0x198926c4
0,         10,         10,        1,    64800, 0x439a3044
0,         11,         11,        1,    64800, 0x0a4e38e1
0,         12,         12,        1,    64800, 0x6e043e7e
0,         13,         13,        1,    64800, 0xde434533
0,         14,         14,        1,    64800, 0xb58a4ad1
0,         15,         15,        1,    64800, 0xaa105710
0,         16,         16,        1,    64800, 0x1723440c
0,         17,         17,        1,    64800, 0x3b064116
0,         18,         18,        1,    64800, 0x853f38e4
0,         19,         19,        1,    64800, 0x52f53917
0,         20,         20,        1,    64800, 0xea363e5a
0,         21,         21,        1,    64800, 0x4d0a344e
0,         22,         22,        1,    64800, 0xe49232fc
0,         23,         23,        1,    64800, 0x747b1a02
0,         24,         24,        1,    64800, 0xbaa82992
0,         25,         25,        1,    64800, 0x8e9322db
0,         26,         26,        1,    64800, 0x029a2fcf
0,         27,         27,        1,    64800, 0xb9a62f6a
0,         28,         28,        1,    64800, 0x553329fe
0,         29,         29,        1,    64800, 0x9a052b5b
0,         30,         30,        1,    64800, 0xe2ff2404
0,         31,         31,        1,    64800, 0xaacd1b59
0,         32,         32,        1,    64800, 0x17d820de
0,         33,         33,        1,    64800, 0x1c9e312c
0,         34,         34,        1,    64800, 0x84df3b99
0,         35,         35,        1,    64800, 0xf7d13aa1
